<svg width="242" height="200" viewBox="0 0 242 200" fill="none" xmlns="http://www.w3.org/2000/svg">
  <circle cx="121" cy="110" r="72" fill="#F3F3F8" stroke="#DFE3FA" stroke-width="1"/>
  <rect x="72" y="90" width="100" height="72" rx="4" fill="white" stroke="#DFE3FA" stroke-width="1.5"/>
  <path d="M72 96l49 34 49-34" stroke="#DFE3FA" stroke-width="1.5" fill="none"/>
  <rect x="44" y="78" width="30" height="22" rx="3" fill="white" stroke="#DFE3FA" stroke-width="1.2" transform="rotate(-15 44 78)"/>
  <path d="M44 81l15 9 15-9" stroke="#DFE3FA" stroke-width="1" fill="none" transform="rotate(-15 44 78)"/>
  <rect x="168" y="68" width="30" height="22" rx="3" fill="white" stroke="#DFE3FA" stroke-width="1.2" transform="rotate(12 168 68)"/>
  <path d="M168 71l15 9 15-9" stroke="#DFE3FA" stroke-width="1" fill="none" transform="rotate(12 168 68)"/>
  <path d="M190 148l-22-8 6-6z" fill="white" stroke="#DFE3FA" stroke-width="1.2" stroke-linejoin="round"/>
  <path d="M168 140l6-6" stroke="#DFE3FA" stroke-width="1.2"/>
  <ellipse cx="130" cy="72" rx="18" ry="12" fill="#7C5DFA" opacity="0.15"/>
  <path d="M112 100 Q121 68 130 65 Q139 68 148 100 Q139 105 121 103 Q112 102 112 100Z" fill="#7C5DFA"/>
  <rect x="125" y="64" width="10" height="12" rx="2" fill="#1a1a2e"/>
  <ellipse cx="130" cy="54" rx="14" ry="16" fill="#F5CBA7"/>
  <path d="M116 50 Q114 30 130 28 Q148 26 148 46 Q145 38 130 40 Q118 42 116 50Z" fill="#E8D5C4"/>
  <path d="M116 50 Q110 55 112 68 Q118 72 116 50Z" fill="#E8D5C4"/>
  <path d="M148 80 Q158 70 164 62" stroke="#7C5DFA" stroke-width="6" stroke-linecap="round" fill="none"/>
  <path d="M158 56 L172 46 L176 58 L162 68Z" fill="#7C5DFA"/>
  <rect x="154" y="57" width="10" height="12" rx="2" fill="#7C5DFA"/>
  <path d="M164 72 L168 62" stroke="#7C5DFA" stroke-width="2"/>
  <path d="M177 48 Q182 52 180 58" stroke="#7C5DFA" stroke-width="1.5" fill="none" stroke-linecap="round"/>
  <path d="M180 44 Q188 50 185 60" stroke="#7C5DFA" stroke-width="1.5" fill="none" stroke-linecap="round" opacity="0.6"/>
</svg>
